<svg width="155" height="155" viewBox="0 0 155 155" fill="none" xmlns="http://www.w3.org/2000/svg">
<path d="M0.799988 29.6C0.799988 21.9618 3.83427 14.6364 9.23531 9.23532C14.6364 3.83427 21.9618 0.799995 29.6 0.799995H106.4C114.038 0.799995 121.364 3.83427 126.765 9.23532C132.166 14.6364 135.2 21.9618 135.2 29.6V62.2496C130.821 59.7215 125.854 58.3907 120.798 58.3911C115.742 58.3915 110.775 59.723 106.396 62.2518C102.018 64.7806 98.3822 68.4175 95.8551 72.7969C93.328 77.1763 91.9984 82.1438 92 87.2H77.6C76.327 87.2 75.106 87.7057 74.2059 88.6059C73.3057 89.5061 72.8 90.727 72.8 92C72.8 93.273 73.3057 94.4939 74.2059 95.3941C75.106 96.2943 76.327 96.8 77.6 96.8H93.632C94.9028 100.382 96.8702 103.678 99.4208 106.496C93.457 107.04 87.912 109.793 83.8746 114.216C79.8372 118.639 77.5992 124.412 77.6 130.4C77.6 132.003 77.7248 133.606 77.9648 135.2H29.6C21.9618 135.2 14.6364 132.166 9.23531 126.765C3.83427 121.364 0.799988 114.038 0.799988 106.4V29.6ZM61.7984 40.1984C62.6997 39.2971 63.2061 38.0746 63.2061 36.8C63.2061 35.5253 62.6997 34.3029 61.7984 33.4016C60.8971 32.5003 59.6746 31.9939 58.4 31.9939C57.1253 31.9939 55.9029 32.5003 55.0016 33.4016L41.4464 46.9568L37.6352 43.4816C36.6882 42.6722 35.4637 42.2627 34.2204 42.3395C32.977 42.4164 31.8122 42.9736 30.9722 43.8934C30.1321 44.8133 29.6825 46.0237 29.7185 47.2689C29.7544 48.5141 30.2731 49.6965 31.1648 50.5664L38.3648 57.1424C39.2771 57.973 40.4741 58.4204 41.7075 58.3918C42.941 58.3632 44.116 57.8608 44.9888 56.9888L61.7888 40.1888L61.7984 40.1984ZM61.7984 81.4016C61.3525 80.9546 60.8228 80.5999 60.2397 80.358C59.6565 80.116 59.0314 79.9914 58.4 79.9914C57.7686 79.9914 57.1435 80.116 56.5603 80.358C55.9772 80.5999 55.4475 80.9546 55.0016 81.4016L41.4464 94.9568L37.6352 91.4816C36.6882 90.6722 35.4637 90.2627 34.2204 90.3395C32.977 90.4164 31.8122 90.9736 30.9722 91.8934C30.1321 92.8133 29.6825 94.0237 29.7185 95.2689C29.7544 96.5141 30.2731 97.6965 31.1648 98.5664L38.3648 105.142C39.2759 105.974 40.4722 106.423 41.7056 106.397C42.939 106.37 44.1147 105.869 44.9888 104.998L61.7888 88.1984C62.6886 87.2983 63.1942 86.0776 63.1942 84.8048C63.1942 83.532 62.6886 82.3113 61.7888 81.4112L61.7984 81.4016ZM72.8 44C72.8 45.273 73.3057 46.4939 74.2059 47.3941C75.106 48.2943 76.327 48.8 77.6 48.8H101.6C102.873 48.8 104.094 48.2943 104.994 47.3941C105.894 46.4939 106.4 45.273 106.4 44C106.4 42.727 105.894 41.5061 104.994 40.6059C104.094 39.7057 102.873 39.2 101.6 39.2H77.6C76.327 39.2 75.106 39.7057 74.2059 40.6059C73.3057 41.5061 72.8 42.727 72.8 44ZM140 87.2C140 92.2922 137.977 97.1758 134.376 100.776C130.776 104.377 125.892 106.4 120.8 106.4C115.708 106.4 110.824 104.377 107.224 100.776C103.623 97.1758 101.6 92.2922 101.6 87.2C101.6 82.1078 103.623 77.2243 107.224 73.6236C110.824 70.0229 115.708 68 120.8 68C125.892 68 130.776 70.0229 134.376 73.6236C137.977 77.2243 140 82.1078 140 87.2ZM154.4 130.4C154.4 142.352 144.8 154.4 120.8 154.4C96.8 154.4 87.2 142.4 87.2 130.4C87.2 126.581 88.7171 122.918 91.4176 120.218C94.1182 117.517 97.7809 116 101.6 116H140C143.819 116 147.482 117.517 150.182 120.218C152.883 122.918 154.4 126.581 154.4 130.4Z" fill="#0A202E"/>
</svg>
