<svg width="512" height="512" viewBox="0 0 512 512" fill="none" xmlns="http://www.w3.org/2000/svg">
<path d="M76.8 153.6C76.8 133.231 84.8914 113.697 99.2942 99.2942C113.697 84.8914 133.231 76.8 153.6 76.8H358.4C378.769 76.8 398.303 84.8914 412.706 99.2942C427.109 113.697 435.2 133.231 435.2 153.6V240.666C423.523 233.924 410.277 230.375 396.794 230.376C383.311 230.377 370.066 233.928 358.39 240.672C346.714 247.415 337.019 257.113 330.28 268.792C323.541 280.47 319.996 293.717 320 307.2H281.6C278.205 307.2 274.949 308.549 272.549 310.949C270.149 313.349 268.8 316.605 268.8 320C268.8 323.395 270.149 326.651 272.549 329.051C274.949 331.451 278.205 332.8 281.6 332.8H324.352C327.741 342.353 332.987 351.14 339.789 358.656C323.885 360.106 309.099 367.449 298.332 379.243C287.566 391.038 281.598 406.431 281.6 422.4C281.6 426.675 281.933 430.95 282.573 435.2H153.6C133.231 435.2 113.697 427.109 99.2942 412.706C84.8914 398.303 76.8 378.769 76.8 358.4V153.6ZM239.462 181.862C241.866 179.459 243.216 176.199 243.216 172.8C243.216 169.401 241.866 166.141 239.462 163.738C237.059 161.334 233.799 159.984 230.4 159.984C227.001 159.984 223.741 161.334 221.338 163.738L185.19 199.885L175.027 190.618C172.502 188.459 169.237 187.367 165.921 187.572C162.605 187.777 159.499 189.263 157.259 191.716C155.019 194.169 153.82 197.396 153.916 200.717C154.012 204.038 155.395 207.191 157.773 209.51L176.973 227.046C179.406 229.261 182.598 230.454 185.887 230.378C189.176 230.302 192.309 228.962 194.637 226.637L239.437 181.837L239.462 181.862ZM239.462 291.738C238.273 290.546 236.861 289.6 235.306 288.955C233.751 288.309 232.084 287.977 230.4 287.977C228.716 287.977 227.049 288.309 225.494 288.955C223.939 289.6 222.527 290.546 221.338 291.738L185.19 327.885L175.027 318.618C172.502 316.459 169.237 315.367 165.921 315.572C162.605 315.777 159.499 317.263 157.259 319.716C155.019 322.169 153.82 325.396 153.916 328.717C154.012 332.038 155.395 335.191 157.773 337.51L176.973 355.046C179.402 357.265 182.593 358.462 185.882 358.391C189.171 358.319 192.306 356.984 194.637 354.662L239.437 309.862C241.836 307.462 243.184 304.207 243.184 300.813C243.184 297.419 241.836 294.164 239.437 291.763L239.462 291.738ZM268.8 192C268.8 195.395 270.149 198.65 272.549 201.051C274.949 203.451 278.205 204.8 281.6 204.8H345.6C348.995 204.8 352.251 203.451 354.651 201.051C357.051 198.65 358.4 195.395 358.4 192C358.4 188.605 357.051 185.349 354.651 182.949C352.251 180.549 348.995 179.2 345.6 179.2H281.6C278.205 179.2 274.949 180.549 272.549 182.949C270.149 185.349 268.8 188.605 268.8 192ZM448 307.2C448 320.779 442.606 333.802 433.004 343.404C423.402 353.006 410.379 358.4 396.8 358.4C383.221 358.4 370.198 353.006 360.596 343.404C350.994 333.802 345.6 320.779 345.6 307.2C345.6 293.621 350.994 280.598 360.596 270.996C370.198 261.394 383.221 256 396.8 256C410.379 256 423.402 261.394 433.004 270.996C442.606 280.598 448 293.621 448 307.2ZM486.4 422.4C486.4 454.272 460.8 486.4 396.8 486.4C332.8 486.4 307.2 454.4 307.2 422.4C307.2 412.216 311.246 402.448 318.447 395.247C325.648 388.046 335.416 384 345.6 384H448C458.184 384 467.951 388.046 475.153 395.247C482.354 402.448 486.4 412.216 486.4 422.4Z" fill="#21262D"/>
</svg>
