<svg width="192" height="192" viewBox="0 0 192 192" fill="none" xmlns="http://www.w3.org/2000/svg">
<path d="M28.8 57.6C28.8 49.9618 31.8343 42.6364 37.2353 37.2353C42.6364 31.8343 49.9618 28.8 57.6 28.8H134.4C142.038 28.8 149.364 31.8343 154.765 37.2353C160.166 42.6364 163.2 49.9618 163.2 57.6V90.2496C158.821 87.7215 153.854 86.3907 148.798 86.3911C143.742 86.3915 138.775 87.723 134.396 90.2518C130.018 92.7806 126.382 96.4175 123.855 100.797C121.328 105.176 119.998 110.144 120 115.2H105.6C104.327 115.2 103.106 115.706 102.206 116.606C101.306 117.506 100.8 118.727 100.8 120C100.8 121.273 101.306 122.494 102.206 123.394C103.106 124.294 104.327 124.8 105.6 124.8H121.632C122.903 128.382 124.87 131.678 127.421 134.496C121.457 135.04 115.912 137.793 111.875 142.216C107.837 146.639 105.599 152.412 105.6 158.4C105.6 160.003 105.725 161.606 105.965 163.2H57.6C49.9618 163.2 42.6364 160.166 37.2353 154.765C31.8343 149.364 28.8 142.038 28.8 134.4V57.6ZM89.7984 68.1984C90.6997 67.2971 91.2061 66.0746 91.2061 64.8C91.2061 63.5253 90.6997 62.3029 89.7984 61.4016C88.8971 60.5003 87.6746 59.9939 86.4 59.9939C85.1253 59.9939 83.9029 60.5003 83.0016 61.4016L69.4464 74.9568L65.6352 71.4816C64.6882 70.6722 63.4637 70.2627 62.2204 70.3395C60.977 70.4164 59.8122 70.9736 58.9722 71.8934C58.1321 72.8133 57.6825 74.0237 57.7185 75.2689C57.7544 76.5141 58.2731 77.6965 59.1648 78.5664L66.3648 85.1424C67.2771 85.973 68.4741 86.4204 69.7075 86.3918C70.941 86.3632 72.116 85.8608 72.9888 84.9888L89.7888 68.1888L89.7984 68.1984ZM89.7984 109.402C89.3525 108.955 88.8228 108.6 88.2397 108.358C87.6565 108.116 87.0314 107.991 86.4 107.991C85.7686 107.991 85.1435 108.116 84.5603 108.358C83.9772 108.6 83.4475 108.955 83.0016 109.402L69.4464 122.957L65.6352 119.482C64.6882 118.672 63.4637 118.263 62.2204 118.34C60.977 118.416 59.8122 118.974 58.9722 119.893C58.1321 120.813 57.6825 122.024 57.7185 123.269C57.7544 124.514 58.2731 125.697 59.1648 126.566L66.3648 133.142C67.2759 133.974 68.4722 134.423 69.7056 134.397C70.939 134.37 72.1147 133.869 72.9888 132.998L89.7888 116.198C90.6886 115.298 91.1942 114.078 91.1942 112.805C91.1942 111.532 90.6886 110.311 89.7888 109.411L89.7984 109.402ZM100.8 72C100.8 73.273 101.306 74.4939 102.206 75.3941C103.106 76.2943 104.327 76.8 105.6 76.8H129.6C130.873 76.8 132.094 76.2943 132.994 75.3941C133.894 74.4939 134.4 73.273 134.4 72C134.4 70.727 133.894 69.5061 132.994 68.6059C132.094 67.7057 130.873 67.2 129.6 67.2H105.6C104.327 67.2 103.106 67.7057 102.206 68.6059C101.306 69.5061 100.8 70.727 100.8 72ZM168 115.2C168 120.292 165.977 125.176 162.376 128.776C158.776 132.377 153.892 134.4 148.8 134.4C143.708 134.4 138.824 132.377 135.224 128.776C131.623 125.176 129.6 120.292 129.6 115.2C129.6 110.108 131.623 105.224 135.224 101.624C138.824 98.0229 143.708 96 148.8 96C153.892 96 158.776 98.0229 162.376 101.624C165.977 105.224 168 110.108 168 115.2ZM182.4 158.4C182.4 170.352 172.8 182.4 148.8 182.4C124.8 182.4 115.2 170.4 115.2 158.4C115.2 154.581 116.717 150.918 119.418 148.218C122.118 145.517 125.781 144 129.6 144H168C171.819 144 175.482 145.517 178.182 148.218C180.883 150.918 182.4 154.581 182.4 158.4Z" fill="#21262D"/>
</svg>
